# xmcd
#
# Track frame offsets:
#  150
#  34255
#  76112
#  99825
#  139960
#  194137
#  226880
#  240172
#  279572
#
# Disc length: 4057 seconds
#
# Revision: 1
# Processed by: cddbd v1.5.2PL0 Copyright (c) Steve Scherf et al.
# Submitted via: Collectorz.com_Music_Collector 6.11
#
DISCID=6f0fd709
DTITLE=Aretha Franklin - Songs
DYEAR=1966
DGENRE=Soul
TTITLE0=Mary Don't You Weep
TTITLE1=You've Got A Friend
TTITLE2=Give YourselfTo Jesus
TTITLE3=How Got I Over What A Friend
TTITLE4=Amazing Grace
TTITLE5=Precious Memores
TTITLE6=Climbing Higher Mountains
TTITLE7=God Will Take Care of You
TTITLE8=Wholy Holy
EXTD=
EXTT0=
EXTT1=
EXTT2=
EXTT3=
EXTT4=
EXTT5=
EXTT6=
EXTT7=
EXTT8=
PLAYORDER=
